Coordinates
version=1
nRows=10
nColumns=23
inDegrees=yes

Units are S.I. units (second, meters, Newtons, ...)
If the header above contains a line with 'inDegrees', this indicates whether rotational values are in degrees (yes) or radians (no).

endheader
time	pelvis_tilt	pelvis_list	pelvis_rotation	pelvis_tx	pelvis_ty	pelvis_tz	hip_flexion_r	hip_adduction_r	hip_rotation_r	knee_angle_r	knee_angle_r_beta	ankle_angle_r	subtalar_angle_r	mtp_angle_r	hip_flexion_l	hip_adduction_l	hip_rotation_l	knee_angle_l	knee_angle_l_beta	ankle_angle_l	subtalar_angle_l	mtp_angle_l
     22.50000000	     -8.11722725	      6.68886413	      4.46535515	      2.37430000	      0.98544998	      1.05532197	     34.48856092	    -10.17016466	      2.35630856	    100.21162586	      1.74902282	      2.28802123	    -19.94625406	      0.00000000	     14.08957842	     11.00386505	     -5.28499270	     42.53649459	      0.74240188	     27.38947463	     -7.25844111	      0.00000000
     22.50666667	     -8.04074575	      5.80591332	      4.35190860	      2.37516674	      0.98935012	      1.05535420	     35.77592759	     -9.19486091	      1.98304917	     98.75489277	      1.72359803	      2.41344939	    -21.01472740	      0.00000000	     11.73171483	      9.88373715	     -5.14112192	     40.86834885	      0.71328725	     26.75768546	     -6.20560275	      0.00000000
     22.51333333	     -8.66903418	      5.11166388	      4.41078082	      2.37599459	      0.99264465	      1.05504693	     37.76106693	     -8.57128026	      1.59432213	     97.18218062	      1.69614903	      2.89179384	    -21.23397940	      0.00000000	     10.17048163	      9.16506806	     -4.67840244	     39.16625195	      0.68358005	     25.82940783	     -5.47874830	      0.00000000
     22.52000000	     -8.30427088	      4.09627001	      4.39087417	      2.37773289	      0.99769933	      1.05486826	     38.30675379	     -7.59677868	      0.82071941	     95.06406289	      1.65918090	      2.84163419	    -22.29303109	      0.00000000	      7.41702940	      7.81840403	     -4.72567826	     37.15217163	      0.64842772	     24.14880708	     -4.61888575	      0.00000000
     22.52666667	     -9.06908454	      3.35210087	      4.48241788	      2.37915407	      1.00140619	      1.05444675	     40.11276649	     -6.98230748	      0.26224341	     92.95815945	      1.62242595	      3.23886821	    -22.28591453	      0.00000000	      6.03775570	      7.01758584	     -4.40841730	     35.31604674	      0.61638129	     22.46654294	     -3.78904649	      0.00000000
     22.53333333	     -8.81262511	      2.36678896	      4.45824271	      2.38135440	      1.00669310	      1.05421905	     40.48342678	     -6.06407268	     -0.57629808	     90.37355557	      1.57731610	      3.14677344	    -22.93612584	      0.00000000	      3.46629582	      5.65295426	     -4.80692055	     33.15365433	      0.57864043	     19.59657065	     -3.26834156	      0.00000000
     22.54000000	     -8.67629072	      1.47599751	      4.43228643	      2.38370142	      1.01194013	      1.05392339	     40.85848748	     -5.19869489	     -1.30101924	     87.58409056	      1.52863075	      2.92190152	    -23.65589586	      0.00000000	      1.07580330	      4.53882550	     -4.89733035	     30.98498026	      0.54078992	     16.83388612	     -2.88558581	      0.00000000
     22.54666667	     -9.03841943	      0.69715277	      4.27458658	      2.38596396	      1.01645442	      1.05378949	     41.73982643	     -4.40825679	     -1.87176472	     84.70799406	      1.47843340	      2.96542660	    -23.61422207	      0.00000000	     -0.61410351	      3.52350273	     -5.41482242	     29.02831218	      0.50663962	     13.63422226	     -2.47231793	      0.00000000
     22.55333333	     -9.45030490	      0.01220384	      4.12765954	      2.38826303	      1.02087010	      1.05363395	     42.53761309	     -3.71043869	     -2.40555361	     81.63704508	      1.42483523	      2.88038311	    -23.57829822	      0.00000000	     -2.13603494	      2.61082330	     -6.02358543	     27.19607519	      0.47466106	     10.06407734	     -2.06946881	      0.00000000
     22.56000000	     -9.52688943	     -0.62026827	      3.75374046	      2.39082672	      1.02570129	      1.05371474	     42.81478457	     -2.87815853	     -2.77632321	     78.30493549	      1.36667894	      2.70463909	    -23.65605220	      0.00000000	     -4.04145973	      1.83931350	     -6.57491273	     25.24385540	      0.44058839	      6.50321104	     -2.12620589	      0.00000000
